PathFileType	4	(X/Y/Z)	 0.16m3min.trc
DataRate	CameraRate	NumFrames	NumMarkers	Units	OrigDataRate	OrigDataStartFrame	OrigNumFrames
200	200	11	35	m	200	626	1000
Frame#	Time	C7			LSH			RSH			MAN			RASI			LASI			HIPR			HIPL			RPSI			LPSI			COX			RTHI1			RTHI2			RTHI3			RTHI4			RSHA1			RSHA2			RSHA3			RSHA4			RHEEL			RMET5			RMET1			RTOE			LTHI1			LTHI2			LTHI3			LTHI4			LSHA1			LSHA2			LSHA3			LSHA4			LHEEL			LMET5			LMET1			LTOE			
		X1	Y1	Z1	X2	Y2	Z2	X3	Y3	Z3	X4	Y4	Z4	X5	Y5	Z5	X6	Y6	Z6	X7	Y7	Z7	X8	Y8	Z8	X9	Y9	Z9	X10	Y10	Z10	X11	Y11	Z11	X12	Y12	Z12	X13	Y13	Z13	X14	Y14	Z14	X15	Y15	Z15	X16	Y16	Z16	X17	Y17	Z17	X18	Y18	Z18	X19	Y19	Z19	X20	Y20	Z20	X21	Y21	Z21	X22	Y22	Z22	X23	Y23	Z23	X24	Y24	Z24	X25	Y25	Z25	X26	Y26	Z26	X27	Y27	Z27	X28	Y28	Z28	X29	Y29	Z29	X30	Y30	Z30	X31	Y31	Z31	X32	Y32	Z32	X33	Y33	Z33	X34	Y34	Z34	X35	Y35	Z35	
626	3.1300	-0.399297	1.493089	-0.497265	-0.329878	1.486680	-0.657698	-0.332722	1.477433	-0.325883	-0.283796	1.455878	-0.496251	-0.237423	1.054444	-0.408707	-0.228254	1.065201	-0.600215	-0.277502	1.104842	-0.365328	-0.271428	1.114634	-0.624672	-0.373583	1.109372	-0.436899	-0.364662	1.113455	-0.549115	-0.376907	1.112961	-0.497576	-0.349742	0.854650	-0.323454	-0.338312	0.796225	-0.318751	-0.274111	0.806886	-0.322011	-0.278701	0.867836	-0.327699	-0.407839	0.425161	-0.305520	-0.416327	0.383028	-0.307951	-0.355980	0.377372	-0.302922	-0.351128	0.417737	-0.304483	-0.457673	0.214987	-0.362687	-0.345065	0.100661	-0.304159	-0.302774	0.112675	-0.366103	-0.284784	0.093476	-0.357234	-0.319708	0.873166	-0.677038	-0.307758	0.812577	-0.679940	-0.245522	0.818491	-0.663966	-0.248917	0.878437	-0.658831	-0.396336	0.392280	-0.680116	-0.407575	0.353752	-0.675158	-0.345573	0.342556	-0.675922	-0.342666	0.386406	-0.682013	-0.451142	0.209665	-0.628242	-0.324690	0.106419	-0.678889	-0.288533	0.117773	-0.618089	-0.268419	0.099194	-0.625700	
627	3.1350	-0.398170	1.495132	-0.497315	-0.329153	1.488274	-0.657969	-0.331802	1.479544	-0.326071	-0.282865	1.457891	-0.496454	-0.238012	1.056271	-0.408772	-0.228857	1.067039	-0.600265	-0.278133	1.106594	-0.365383	-0.272077	1.116349	-0.624647	-0.374169	1.110904	-0.437132	-0.365226	1.115059	-0.549152	-0.377450	1.114562	-0.497652	-0.348794	0.856138	-0.322810	-0.336988	0.797782	-0.318290	-0.272877	0.808819	-0.322309	-0.277878	0.869748	-0.327856	-0.405876	0.426935	-0.305325	-0.414523	0.384796	-0.308043	-0.354136	0.378970	-0.303508	-0.349199	0.419314	-0.305006	-0.456743	0.216024	-0.362907	-0.341918	0.103570	-0.304985	-0.300157	0.116317	-0.367210	-0.281726	0.097503	-0.358442	-0.318972	0.874887	-0.677591	-0.306543	0.814385	-0.680288	-0.244506	0.820790	-0.663789	-0.248389	0.880720	-0.658782	-0.394944	0.394094	-0.679764	-0.406299	0.355593	-0.674751	-0.344308	0.344253	-0.675269	-0.341288	0.388092	-0.681469	-0.450339	0.211272	-0.627709	-0.323173	0.108835	-0.678397	-0.287171	0.120349	-0.617431	-0.266870	0.101889	-0.624991	
628	3.1400	-0.396985	1.497087	-0.497333	-0.328298	1.489630	-0.658258	-0.330854	1.481402	-0.326242	-0.281931	1.459649	-0.496650	-0.238626	1.057855	-0.408821	-0.229480	1.068662	-0.600289	-0.278816	1.108096	-0.365440	-0.272745	1.117857	-0.624607	-0.374858	1.112395	-0.437349	-0.365829	1.116411	-0.549189	-0.378025	1.115899	-0.497727	-0.347784	0.857378	-0.322146	-0.335612	0.799080	-0.317827	-0.271604	0.810497	-0.322609	-0.277004	0.871395	-0.327994	-0.403887	0.428445	-0.305196	-0.412681	0.386331	-0.308149	-0.352275	0.380336	-0.304098	-0.347238	0.420673	-0.305517	-0.455783	0.216960	-0.363099	-0.338958	0.106200	-0.305826	-0.297736	0.119569	-0.368393	-0.278941	0.101076	-0.359710	-0.318286	0.876416	-0.678111	-0.305380	0.816008	-0.680646	-0.243542	0.822887	-0.663657	-0.247906	0.882800	-0.658738	-0.393478	0.395669	-0.679401	-0.404938	0.357198	-0.674347	-0.342957	0.345722	-0.674607	-0.339832	0.389551	-0.680902	-0.449449	0.212754	-0.627215	-0.321737	0.110914	-0.677873	-0.285964	0.122415	-0.616684	-0.265533	0.104015	-0.624188	
629	3.1450	-0.395841	1.498669	-0.497404	-0.327321	1.490753	-0.658565	-0.329881	1.483003	-0.326397	-0.281014	1.461145	-0.496840	-0.239253	1.059193	-0.408854	-0.230116	1.070057	-0.600290	-0.279536	1.109345	-0.365501	-0.273418	1.119155	-0.624558	-0.375505	1.113520	-0.437242	-0.366462	1.117520	-0.549228	-0.378644	1.116988	-0.497809	-0.346734	0.858376	-0.321484	-0.334205	0.800138	-0.317386	-0.270308	0.811917	-0.322917	-0.276097	0.872784	-0.328115	-0.401871	0.429702	-0.305134	-0.410805	0.387634	-0.308268	-0.350382	0.381471	-0.304683	-0.345250	0.421804	-0.306027	-0.454783	0.217787	-0.363268	-0.336177	0.108517	-0.306678	-0.295524	0.122392	-0.369627	-0.276419	0.104156	-0.361030	-0.317659	0.877739	-0.678585	-0.304290	0.817424	-0.680999	-0.242643	0.824759	-0.663567	-0.247476	0.884640	-0.658698	-0.391942	0.396995	-0.679028	-0.403497	0.358558	-0.673941	-0.341527	0.346972	-0.673950	-0.338303	0.390778	-0.680325	-0.448463	0.214110	-0.626756	-0.320369	0.112633	-0.677312	-0.284889	0.123972	-0.615866	-0.264375	0.105576	-0.623306	
630	3.1500	-0.394540	1.500089	-0.497456	-0.326226	1.491634	-0.658891	-0.328899	1.484351	-0.326540	-0.280100	1.462381	-0.497023	-0.239888	1.060280	-0.408872	-0.230754	1.071219	-0.600277	-0.280276	1.110343	-0.365564	-0.274086	1.120236	-0.624501	-0.376153	1.114140	-0.437386	-0.367117	1.118383	-0.549260	-0.379270	1.117817	-0.497883	-0.345664	0.859129	-0.320841	-0.332789	0.800946	-0.316989	-0.269020	0.813080	-0.323225	-0.275177	0.873924	-0.328227	-0.399834	0.430694	-0.305140	-0.408889	0.388706	-0.308404	-0.348461	0.382372	-0.305267	-0.343236	0.422710	-0.306537	-0.453710	0.218513	-0.363396	-0.333573	0.110491	-0.307534	-0.293546	0.124693	-0.370871	-0.274165	0.106695	-0.362378	-0.317103	0.878829	-0.678999	-0.303292	0.818607	-0.681339	-0.241821	0.826375	-0.663516	-0.247102	0.886211	-0.658661	-0.390338	0.398076	-0.678646	-0.401976	0.359668	-0.673529	-0.340024	0.347992	-0.673307	-0.336703	0.391782	-0.679759	-0.447373	0.215322	-0.626324	-0.319060	0.113991	-0.676713	-0.283913	0.125046	-0.614991	-0.263367	0.106601	-0.622367	
631	3.1550	-0.393290	1.501226	-0.497427	-0.325035	1.492279	-0.659228	-0.327925	1.485446	-0.326677	-0.279215	1.463353	-0.497200	-0.240523	1.061123	-0.408877	-0.231396	1.072143	-0.600253	-0.281030	1.111094	-0.365628	-0.274743	1.121090	-0.624442	-0.376931	1.114704	-0.437558	-0.367781	1.119010	-0.549293	-0.379881	1.118400	-0.497943	-0.344591	0.859652	-0.320245	-0.331377	0.801520	-0.316629	-0.267763	0.813999	-0.323518	-0.274263	0.874819	-0.328346	-0.397776	0.431435	-0.305212	-0.406937	0.389537	-0.308557	-0.346512	0.383042	-0.305847	-0.341204	0.423386	-0.307046	-0.452537	0.219122	-0.363497	-0.331135	0.112106	-0.308386	-0.291771	0.126464	-0.372118	-0.272125	0.108672	-0.363751	-0.316624	0.879677	-0.679347	-0.302398	0.819539	-0.681646	-0.241088	0.827709	-0.663496	-0.246786	0.887487	-0.658624	-0.388678	0.398908	-0.678267	-0.400386	0.360527	-0.673118	-0.338453	0.348768	-0.672685	-0.335048	0.392551	-0.679195	-0.446175	0.216379	-0.625911	-0.317798	0.114987	-0.676077	-0.283008	0.125668	-0.614075	-0.262479	0.107121	-0.621391	
632	3.1600	-0.391956	1.502154	-0.497405	-0.323762	1.492688	-0.659569	-0.326969	1.486290	-0.326819	-0.278344	1.464062	-0.497372	-0.241147	1.061723	-0.408876	-0.232037	1.072816	-0.600223	-0.281786	1.111601	-0.365692	-0.275381	1.121710	-0.624386	-0.377779	1.115040	-0.437698	-0.368443	1.119415	-0.549325	-0.380491	1.118752	-0.497998	-0.343538	0.859944	-0.319706	-0.329994	0.801853	-0.316317	-0.266559	0.814699	-0.323802	-0.273360	0.875478	-0.328473	-0.395698	0.431932	-0.305357	-0.404953	0.390115	-0.308739	-0.344529	0.383495	-0.306423	-0.339151	0.423847	-0.307559	-0.451249	0.219609	-0.363586	-0.328853	0.113353	-0.309229	-0.290160	0.127711	-0.373357	-0.270292	0.110077	-0.365130	-0.316233	0.880258	-0.679619	-0.301625	0.820203	-0.681911	-0.240454	0.828737	-0.663498	-0.246533	0.888459	-0.658583	-0.386975	0.399494	-0.677903	-0.398740	0.361130	-0.672719	-0.336828	0.349301	-0.672090	-0.333347	0.393078	-0.678655	-0.444872	0.217264	-0.625499	-0.316591	0.115610	-0.675396	-0.282142	0.125877	-0.613140	-0.261673	0.107196	-0.620396	
633	3.1650	-0.390558	1.502898	-0.497312	-0.322431	1.492857	-0.659906	-0.326019	1.486867	-0.326968	-0.277499	1.464511	-0.497539	-0.241759	1.062075	-0.408869	-0.232673	1.073233	-0.600198	-0.282535	1.111867	-0.365757	-0.275998	1.122093	-0.624335	-0.378479	1.115117	-0.437763	-0.369094	1.119591	-0.549359	-0.381099	1.118871	-0.498055	-0.342524	0.860003	-0.319236	-0.328655	0.801961	-0.316061	-0.265413	0.815174	-0.324087	-0.272483	0.875911	-0.328620	-0.393599	0.432224	-0.305539	-0.402935	0.390466	-0.308945	-0.342513	0.383740	-0.306990	-0.337081	0.424095	-0.308071	-0.449838	0.219950	-0.363656	-0.326716	0.114217	-0.310070	-0.288680	0.128440	-0.374566	-0.268633	0.110917	-0.366477	-0.315933	0.880563	-0.679812	-0.300979	0.820590	-0.682124	-0.239924	0.829445	-0.663512	-0.246348	0.889111	-0.658540	-0.385238	0.399835	-0.677560	-0.397053	0.361472	-0.672338	-0.335159	0.349594	-0.671534	-0.331619	0.393351	-0.678140	-0.443475	0.217960	-0.625086	-0.315434	0.115856	-0.674670	-0.281291	0.125717	-0.612203	-0.260918	0.106873	-0.619395	
634	3.1700	-0.389228	1.503401	-0.497318	-0.321068	1.492788	-0.660234	-0.325063	1.487181	-0.327112	-0.276672	1.464704	-0.497702	-0.242361	1.062181	-0.408863	-0.233295	1.073390	-0.600180	-0.283270	1.111893	-0.365820	-0.276594	1.122222	-0.624288	-0.379136	1.114887	-0.437788	-0.369724	1.119546	-0.549397	-0.381678	1.118753	-0.498110	-0.341564	0.859835	-0.318840	-0.327372	0.801852	-0.315859	-0.264326	0.815443	-0.324379	-0.271647	0.876110	-0.328797	-0.391478	0.432310	-0.305754	-0.400881	0.390580	-0.309175	-0.340471	0.383769	-0.307554	-0.334987	0.424130	-0.308581	-0.448304	0.220136	-0.363719	-0.324724	0.114695	-0.310902	-0.287300	0.128649	-0.375733	-0.267131	0.111203	-0.367780	-0.315728	0.880582	-0.679921	-0.300467	0.820684	-0.682275	-0.239500	0.829825	-0.663530	-0.246231	0.889444	-0.658488	-0.383482	0.399925	-0.677237	-0.395336	0.361558	-0.671974	-0.333462	0.349646	-0.671012	-0.329871	0.393393	-0.677668	-0.441992	0.218446	-0.624657	-0.314317	0.115739	-0.673905	-0.280426	0.125237	-0.611277	-0.260181	0.106207	-0.618401	
635	3.1750	-0.390876	1.505180	-0.501110	-0.319711	1.492485	-0.660550	-0.324102	1.487228	-0.327252	-0.275866	1.464644	-0.497857	-0.242943	1.062043	-0.408861	-0.233909	1.073278	-0.600172	-0.283984	1.111684	-0.365885	-0.277165	1.122095	-0.624248	-0.379852	1.114589	-0.437763	-0.370322	1.119287	-0.549451	-0.382237	1.118423	-0.498172	-0.340664	0.859446	-0.318496	-0.326149	0.801535	-0.315710	-0.263308	0.815513	-0.324683	-0.270862	0.876079	-0.329009	-0.389337	0.432196	-0.305985	-0.398797	0.390463	-0.309417	-0.338397	0.383591	-0.308113	-0.332874	0.423957	-0.309089	-0.446658	0.220156	-0.363801	-0.322862	0.114792	-0.311728	-0.285969	0.128419	-0.376862	-0.265751	0.110978	-0.369024	-0.315629	0.880322	-0.679945	-0.300094	0.820485	-0.682356	-0.239185	0.829874	-0.663545	-0.246188	0.889460	-0.658430	-0.381721	0.399774	-0.676941	-0.393608	0.361395	-0.671627	-0.331741	0.349451	-0.670523	-0.328125	0.393186	-0.677226	-0.440440	0.218709	-0.624199	-0.313231	0.115270	-0.673099	-0.279529	0.124484	-0.610373	-0.259434	0.105253	-0.617428	
636	3.1800	-0.389934	1.505080	-0.501526	-0.318373	1.491948	-0.660853	-0.323133	1.487010	-0.327384	-0.275075	1.464335	-0.498005	-0.243506	1.061657	-0.408863	-0.234506	1.072892	-0.600176	-0.284668	1.111242	-0.365953	-0.277706	1.121706	-0.624214	-0.380608	1.113891	-0.437994	-0.370890	1.118804	-0.549512	-0.382794	1.117880	-0.498246	-0.339834	0.858843	-0.318205	-0.325003	0.801007	-0.315628	-0.262319	0.815360	-0.325045	-0.270132	0.875824	-0.329259	-0.387186	0.431878	-0.306257	-0.396685	0.390122	-0.309654	-0.336297	0.383206	-0.308656	-0.330744	0.423584	-0.309595	-0.444910	0.220003	-0.363938	-0.321118	0.114506	-0.312551	-0.284671	0.127787	-0.377945	-0.264465	0.110281	-0.370207	-0.315643	0.879772	-0.679884	-0.299859	0.819995	-0.682363	-0.238980	0.829598	-0.663556	-0.246223	0.889161	-0.658368	-0.379975	0.399381	-0.676668	-0.391880	0.360983	-0.671291	-0.330019	0.349033	-0.670074	-0.326384	0.392752	-0.676835	-0.438825	0.218742	-0.623717	-0.312173	0.114473	-0.672266	-0.278586	0.123485	-0.609501	-0.258651	0.104057	-0.616488	
